<svg id="레이어_1" data-name="레이어 1" xmlns="http://www.w3.org/2000/svg" viewBox="0 0 179.78 48"><defs><style>.cls-1{fill:#fff;}.cls-2{fill:#dcdcdc;}.cls-3{fill:#fad749;}.cls-4{fill:#666;}.cls-5{fill:#3f9cf3;}</style></defs><title>대지 4</title><path class="cls-1" d="M40.13,28.55A10.32,10.32,0,0,1,24,37.08,10.32,10.32,0,1,1,13.39,19.41h0A10.33,10.33,0,0,1,34,19.14,10.31,10.31,0,0,1,40.13,28.55Z"/><path class="cls-2" d="M38.12,28.48a8.36,8.36,0,0,1-16.72,0,9.48,9.48,0,0,1,.07-1.08,8.35,8.35,0,0,0,2.24.31,8.27,8.27,0,0,0,2.7-.45A8.35,8.35,0,0,0,32,20.42,8.36,8.36,0,0,1,38.12,28.48Z"/><path class="cls-3" d="M32.07,19.35A7.59,7.59,0,0,1,32,20.42a8.35,8.35,0,0,1-5.59,6.84,8.38,8.38,0,0,0-11-6.7,8,8,0,0,1-.09-1.21,8.36,8.36,0,1,1,16.72,0Z"/><path class="cls-4" d="M26.41,27.26a8.27,8.27,0,0,1-2.7.45,8.35,8.35,0,0,1-2.24-.31A8.37,8.37,0,0,1,24,22.46,8.34,8.34,0,0,1,26.41,27.26Z"/><path class="cls-5" d="M21.4,28.48a8.34,8.34,0,0,0,2.55,6,8.36,8.36,0,1,1,0-12,8.37,8.37,0,0,0-2.48,4.94A9.48,9.48,0,0,0,21.4,28.48Z"/><path class="cls-1" d="M68.62,15.29h-9V11.84h13v2.31c0,7.37-5.23,10.2-13.65,10.82V21.52C64.88,21.11,68.47,19.27,68.62,15.29ZM65,35.38H81.31v3.27H61V25.79H81V29H65v1.64H81v3.19H65Zm16-19H84.7v3.51H81v4.8H77V11.52h4Z"/><path class="cls-1" d="M101.85,24.24c0,4.7-.38,8.3-2,10.44a6.07,6.07,0,0,1-5,2.25,6.16,6.16,0,0,1-5-2.25c-1.64-2.14-2-5.74-2-10.44s.35-8.28,2-10.41a6.19,6.19,0,0,1,5-2.28,6.09,6.09,0,0,1,5,2.28C101.47,16,101.85,19.56,101.85,24.24Zm-10.06,0c0,4,.2,6.93,1.08,8.24a2.29,2.29,0,0,0,2,1,2.34,2.34,0,0,0,2-1c.88-1.31,1.05-4.27,1.05-8.24s-.17-6.9-1.05-8.22a2.36,2.36,0,0,0-2-1,2.3,2.3,0,0,0-2,1C92,17.34,91.79,20.29,91.79,24.24Zm17.95,14.12h-4V11.52h4Z"/><path class="cls-1" d="M124.43,13.42c0,4.79,2.25,6.61,5.59,7.54v3.51a12.16,12.16,0,0,1-7.58-4c-1.49,2.13-4.35,3.71-7.63,4.32V21.28c3.48-1,5.62-3.27,5.62-7.86V11.67h4Zm12.72,2.92h3.71v3.51h-3.71v4.8h-4V11.52h4Z"/><path class="cls-1" d="M158.54,12v3.48h-5.38v6c0,7.54,2.57,10,5.61,11.4v3.68a13.28,13.28,0,0,1-7.6-5.7,13.44,13.44,0,0,1-7.6,5.7V32.89c3-1.4,5.58-3.86,5.58-11.4v-6h-5.32V12Zm6.69,10.17h4v3.45h-4V38.36h-4V11.52h4Z"/><polygon class="cls-3" points="121.18 35.38 137.46 35.38 137.46 38.65 117.17 38.65 117.17 30.64 133.13 30.64 133.13 29 117.17 29 117.17 25.79 137.14 25.79 137.14 33.83 121.18 33.83 121.18 35.38"/></svg>