<svg id="레이어_1" data-name="레이어 1" xmlns="http://www.w3.org/2000/svg" viewBox="0 0 85.04 75.79"><defs><style>.cls-1{fill:#666;}</style></defs><title>대지 5 사본 3</title><path class="cls-1" d="M82.76,36.33c-2.15,5.35-5.75,9.73-9.7,13.84-4.91,5.11-10.32,9.68-15.69,14.29Q51.79,69.25,46.23,74c-2.48,2.14-5,2.17-7.43,0-6.92-6-13.87-11.94-20.74-18A78.35,78.35,0,0,1,6.63,44,32,32,0,0,1,.26,29.4C.18,28.86.09,28.32,0,27.77V23.29c.29-1.6.47-3.23.89-4.79C3.11,10.21,8,4.07,16.23,1.34c9-3,17-.93,23.68,5.9.9.92,1.71,1.94,2.6,3L43,9.57C46.62,5,51,1.7,56.79.53a22.62,22.62,0,0,1,23.7,9.88C85.77,18.6,86.37,27.33,82.76,36.33Z"/></svg>