<svg id="레이어_1" data-name="레이어 1" xmlns="http://www.w3.org/2000/svg" viewBox="0 0 85.04 75.79"><defs><style>.cls-1{fill:#666;}</style></defs><title>대지 8</title><path class="cls-1" d="M84.81,42.8A3.47,3.47,0,0,1,81,45.08c-2.17-.08-4.36,0-6.54,0h-1v1.06c0,8.64,0,17.28,0,25.92a3.28,3.28,0,0,1-3.6,3.61c-6.07-.09-12.14,0-18.21,0q-3.37,0-3.37-3.34V52.5H36v1q0,9.36,0,18.72c0,2.35-1.08,3.43-3.44,3.43H13.25c-2.27,0-3.41-1.13-3.41-3.41V45.11c-.32,0-.61,0-.9,0-1.88,0-3.76,0-5.63,0a3,3,0,0,1-2.14-5.32Q21.12,20.35,41.09,1a3,3,0,0,1,4.53.17L68.24,24.08q7.53,7.64,15,15.28a17.73,17.73,0,0,1,1.53,2.11ZM30.08,69.68V68.63q0-9.4,0-18.8a2.94,2.94,0,0,1,3.18-3.29c5.93,0,11.87,0,17.8,0a4.15,4.15,0,0,1,2.06.66,2.92,2.92,0,0,1,1.13,2.7c0,6.27,0,12.53,0,18.8v.94H67.58V42.54c0-2.28,1.12-3.4,3.41-3.4h3.8L43.2,7.16c-11,10.64-21.88,21.24-33,32h2c2.4,0,3.49,1.08,3.49,3.48V69.68Z"/></svg>