<svg id="레이어_1" data-name="레이어 1" xmlns="http://www.w3.org/2000/svg" viewBox="0 0 48 48"><defs><style>.cls-1{fill:#3f9cf3;}.cls-2{fill:#fff;}.cls-3{fill:#dcdcdc;}.cls-4{fill:#fad749;}.cls-5{fill:#666;}</style></defs><title>대지 1_1</title><rect class="cls-1" width="48" height="48" rx="9.8" ry="9.8"/><path class="cls-2" d="M40.38,28.55a10.32,10.32,0,0,1-16.13,8.53A10.32,10.32,0,1,1,13.64,19.41h0a10.33,10.33,0,0,1,20.65-.26A10.31,10.31,0,0,1,40.38,28.55Z"/><path class="cls-3" d="M38.37,28.48a8.36,8.36,0,0,1-16.72,0,9.48,9.48,0,0,1,.07-1.08,8.35,8.35,0,0,0,2.24.31,8.27,8.27,0,0,0,2.7-.45,8.35,8.35,0,0,0,5.59-6.84A8.36,8.36,0,0,1,38.37,28.48Z"/><path class="cls-4" d="M32.32,19.35a7.59,7.59,0,0,1-.07,1.07,8.35,8.35,0,0,1-5.59,6.84,8.38,8.38,0,0,0-11-6.7,8,8,0,0,1-.09-1.21,8.36,8.36,0,1,1,16.72,0Z"/><path class="cls-5" d="M26.66,27.26a8.27,8.27,0,0,1-2.7.45,8.35,8.35,0,0,1-2.24-.31,8.37,8.37,0,0,1,2.48-4.94A8.34,8.34,0,0,1,26.66,27.26Z"/><path class="cls-1" d="M21.65,28.48a8.34,8.34,0,0,0,2.55,6,8.36,8.36,0,1,1,0-12,8.37,8.37,0,0,0-2.48,4.94A9.48,9.48,0,0,0,21.65,28.48Z"/></svg>