<svg id="레이어_1" data-name="레이어 1" xmlns="http://www.w3.org/2000/svg" viewBox="0 0 70.74 72.09"><defs><style>.cls-1{fill:#666;}</style></defs><title>대지 5 사본 7</title><path class="cls-1" d="M37.44,70.75H33a3,3,0,0,0-.52-.12A34,34,0,0,1,19.5,67a1.4,1.4,0,0,0-1.66.11,20.31,20.31,0,0,1-14.3,3.41A3.31,3.31,0,0,1,.65,67.73,3.19,3.19,0,0,1,2.32,64.3a13.52,13.52,0,0,0,5.52-5.81.82.82,0,0,0-.13-1.08A34.7,34.7,0,0,1,.55,41.54C.31,40.23.18,38.91,0,37.59V33.31c0-.22.1-.44.12-.67A33.59,33.59,0,0,1,2.45,22.46,34.74,34.74,0,0,1,15.25,6.3,34.45,34.45,0,0,1,40.3.37,34,34,0,0,1,62.41,12.66c7.19,8.62,9.68,18.56,7.65,29.57A34.09,34.09,0,0,1,59.85,60.89a34.79,34.79,0,0,1-18.31,9.3C40.18,70.43,38.81,70.57,37.44,70.75Zm-31-4.13c.38,0,.77,0,1.15-.05a17.23,17.23,0,0,0,9.32-3.8,2.29,2.29,0,0,1,2.86-.2,30.12,30.12,0,0,0,11,3.8A29.82,29.82,0,0,0,52.6,61.48C63.72,53.75,68.3,42.94,66.08,29.6A31,31,0,0,0,37.92,4.18a30.15,30.15,0,0,0-23,7.54c-9,8-12.31,18.08-10.21,29.89a29.53,29.53,0,0,0,7,14.28A2.63,2.63,0,0,1,12.07,59,22.35,22.35,0,0,1,6.47,66.62Z"/><path class="cls-1" d="M32.88,35.4a2.48,2.48,0,1,1,2.46,2.46A2.47,2.47,0,0,1,32.88,35.4Z"/><path class="cls-1" d="M25,35.37a2.47,2.47,0,0,1-2.5,2.49,2.48,2.48,0,1,1,.05-5A2.46,2.46,0,0,1,25,35.37Z"/><path class="cls-1" d="M45.69,35.4a2.45,2.45,0,0,1,2.48-2.5,2.48,2.48,0,1,1-2.48,2.5Z"/></svg>