<svg id="레이어_1" data-name="레이어 1" xmlns="http://www.w3.org/2000/svg" viewBox="0 0 85.04 58.9"><defs><style>.cls-1{fill:#666;}</style></defs><title>대지 5 사본 6</title><path class="cls-1" d="M85,30.08a4.23,4.23,0,0,1-3.43,3.08,8.57,8.57,0,0,1-1.24.05H13.57c.34.36.53.58.74.78q8.81,8.82,17.6,17.62a3.95,3.95,0,0,1-5.18,6c-.25-.21-.48-.46-.72-.69L1.65,32.52c-2.2-2.2-2.2-4.34,0-6.54Q13.92,13.71,26.18,1.44A4,4,0,0,1,30.39.17a3.94,3.94,0,0,1,1.92,6.3,9.22,9.22,0,0,1-.69.71L14.31,24.5c-.21.21-.4.43-.74.78H14.7q32.67,0,65.34,0c2.44,0,4.17.78,5,3.16Z"/></svg>