<svg id="레이어_1" data-name="레이어 1" xmlns="http://www.w3.org/2000/svg" viewBox="0 0 74.67 75.16"><defs><style>.cls-1{fill:#fff;}.cls-2{fill:#3f9cf3;}</style></defs><title>대지 8 사본</title><path class="cls-1" d="M0,36.51V0H74.68V75.22H0V38.71c.06.48.13,1,.18,1.44.11,1.12.15,2.25.34,3.35A37,37,0,0,0,8.88,61.81c1.34,1.59,2.86,3,4.18,4.41,2-1.15,3.87-2.2,5.71-3.22q3.57-2,7.15-3.93a4.33,4.33,0,0,0,2.49-3.55c.12-1.63.06-3.27.06-4.9a1,1,0,0,0-.25-.51,25.92,25.92,0,0,1-4.11-8.51,1.74,1.74,0,0,0-.51-.84,4.07,4.07,0,0,1-1.36-3.12c0-1.56,0-3.12,0-4.69a4.15,4.15,0,0,1,.89-2.57,1.5,1.5,0,0,0,.33-.84c0-2.37.05-4.74,0-7.11a9.9,9.9,0,0,1,5.89-9.53,18.23,18.23,0,0,1,6.19-1.4,22.68,22.68,0,0,1,8.47.9,10,10,0,0,1,7.13,10c-.06,2.37,0,4.74,0,7.11a1.71,1.71,0,0,0,.35.91,4.17,4.17,0,0,1,.87,2.51c0,1.64,0,3.28,0,4.91a3.67,3.67,0,0,1-2.06,3.38,1.65,1.65,0,0,0-.88,1,27,27,0,0,1-4.15,7.68,1.89,1.89,0,0,0-.35,1c0,1.41,0,2.83,0,4.25a4.2,4.2,0,0,0,2.38,3.91c4.65,2.39,9.32,4.75,14.09,7.17l-.11,0C71.26,57.42,75.56,46.25,74.14,32.9A35.37,35.37,0,0,0,68.7,17.68,37,37,0,0,0,30.59.83,36.19,36.19,0,0,0,9,13.32,36.67,36.67,0,0,0,.31,33.69C.21,34.63.1,35.57,0,36.51Z"/><path class="cls-2" d="M0,36.51c.1-.94.21-1.88.31-2.82A36.67,36.67,0,0,1,9,13.32,36.19,36.19,0,0,1,30.59.83,37,37,0,0,1,68.7,17.68,35.37,35.37,0,0,1,74.14,32.9c1.42,13.35-2.88,24.52-12.93,33.41l.11,0c-4.77-2.42-9.44-4.78-14.09-7.17a4.2,4.2,0,0,1-2.38-3.91c0-1.42,0-2.84,0-4.25a1.89,1.89,0,0,1,.35-1,27,27,0,0,0,4.15-7.68,1.65,1.65,0,0,1,.88-1,3.67,3.67,0,0,0,2.06-3.38c0-1.63,0-3.27,0-4.91a4.17,4.17,0,0,0-.87-2.51,1.71,1.71,0,0,1-.35-.91c0-2.37,0-4.74,0-7.11A10,10,0,0,0,44,12.4a22.68,22.68,0,0,0-8.47-.9,18.23,18.23,0,0,0-6.19,1.4,9.9,9.9,0,0,0-5.89,9.53c.09,2.37,0,4.74,0,7.11a1.5,1.5,0,0,1-.33.84A4.15,4.15,0,0,0,22.24,33c0,1.57,0,3.13,0,4.69a4.07,4.07,0,0,0,1.36,3.12,1.74,1.74,0,0,1,.51.84,25.92,25.92,0,0,0,4.11,8.51,1,1,0,0,1,.25.51c0,1.63.06,3.27-.06,4.9a4.33,4.33,0,0,1-2.49,3.55Q22.34,61,18.77,63c-1.84,1-3.67,2.07-5.71,3.22-1.32-1.38-2.84-2.82-4.18-4.41A37,37,0,0,1,.52,43.5C.33,42.4.29,41.27.18,40.15c0-.48-.12-1-.18-1.44Z"/></svg>