<svg id="레이어_1" data-name="레이어 1" xmlns="http://www.w3.org/2000/svg" viewBox="0 0 70.74 75.79"><defs><style>.cls-1{fill:#666;}</style></defs><title>대지 5 사본 5</title><path class="cls-1" d="M56.57,75.79c-.57-.12-1.15-.23-1.72-.37A12.82,12.82,0,0,1,45.67,59l.2-.63L23.72,44.9a12.87,12.87,0,1,1,0-14.1L45.87,17.44A12.7,12.7,0,0,1,47.21,5.73,12.43,12.43,0,0,1,54.48.47,12.85,12.85,0,1,1,47,19.76L25.06,33a34,34,0,0,1,.66,4.87,33.79,33.79,0,0,1-.66,4.86L47,56c.19-.24.35-.45.5-.67A12.84,12.84,0,1,1,59.65,75.66a2.8,2.8,0,0,0-.41.13Zm-33.37-38A10.27,10.27,0,1,0,13,48.12,10.3,10.3,0,0,0,23.2,37.83ZM47.61,62.92A10.27,10.27,0,1,0,58,52.69,10.29,10.29,0,0,0,47.61,62.92Zm0-50.18A10.27,10.27,0,1,0,58.05,2.57,10.28,10.28,0,0,0,47.61,12.74Z"/></svg>