<svg id="레이어_1" data-name="레이어 1" xmlns="http://www.w3.org/2000/svg" viewBox="0 0 85.04 57.13"><defs><style>.cls-1{fill:#3f9cf3;}</style></defs><title>대지 5</title><path class="cls-1" d="M85,50.84a8.44,8.44,0,0,1-2.42,4.34A7.46,7.46,0,0,1,78,57.1c-.27,0-.55,0-.83,0H7.91a7.45,7.45,0,0,1-7.09-4A17,17,0,0,1,0,50.84V6.32A8.1,8.1,0,0,1,2.51,1.85,7.27,7.27,0,0,1,7.12,0h.75q34.65,0,69.3,0a7.37,7.37,0,0,1,6.77,3.57A17,17,0,0,1,85,6.32ZM42.52,2.52H8C4.45,2.52,2.52,4.45,2.52,8q0,20.6,0,41.19c0,3.49,1.95,5.45,5.45,5.45H77.06c3.51,0,5.46-2,5.46-5.45V8c0-3.51-1.94-5.44-5.46-5.44Z"/><path class="cls-1" d="M9.77,43.42H36.48V12.71H9.77c0,.5,0,1,0,1.53,0,.89-.52,1.41-1.29,1.4s-1.2-.51-1.21-1.38,0-1.83,0-2.74.45-1.39,1.38-1.39h29c1,0,1.43.47,1.43,1.6,0,3.38,0,6.75,0,10.13V44c0,1.62-.34,2-1.94,2h-28c-1.55,0-1.88-.34-1.88-1.92V20.16c0-.25,0-.5,0-.75a1.22,1.22,0,0,1,1.24-1.2,1.26,1.26,0,0,1,1.25,1.2,7.48,7.48,0,0,1,0,.82V43.42Z"/><path class="cls-1" d="M27.8,33.14a8.89,8.89,0,0,1,4,5.67A8.59,8.59,0,0,1,32,40.7a1.11,1.11,0,0,1-1.12,1.2,1.17,1.17,0,0,1-1.35-1.06c-.09-.48-.07-1-.17-1.48a6.27,6.27,0,0,0-6.7-5,6.37,6.37,0,0,0-5.77,5.79c0,.11,0,.22,0,.33-.08,1-.51,1.42-1.29,1.4s-1.25-.56-1.21-1.55a8.67,8.67,0,0,1,2.59-5.93,20.67,20.67,0,0,1,1.59-1.34,8.89,8.89,0,0,1-4.16-8.25,8.56,8.56,0,0,1,3-6,8.87,8.87,0,0,1,12.39.82C32.69,22.89,33.31,29.22,27.8,33.14Zm1.64-7.63a6.27,6.27,0,0,0-6.25-6.3,6.3,6.3,0,1,0-.07,12.6A6.23,6.23,0,0,0,29.44,25.51Z"/><path class="cls-1" d="M61.09,13h15.1a4.55,4.55,0,0,1,.91.05,1.17,1.17,0,0,1,1,1.25,1.14,1.14,0,0,1-1,1.19,4.57,4.57,0,0,1-.83,0H45.43c-.92,0-1.45-.49-1.46-1.24S44.53,13,45.48,13H61.09Z"/><path class="cls-1" d="M61,33.89H45.89a4.47,4.47,0,0,1-.82,0A1.18,1.18,0,0,1,44,32.61,1.16,1.16,0,0,1,45.1,31.4a6.21,6.21,0,0,1,.75,0H76.23c.22,0,.45,0,.67,0a1.22,1.22,0,0,1,1.21,1.22,1.24,1.24,0,0,1-1.17,1.27,6.06,6.06,0,0,1-.74,0Z"/><path class="cls-1" d="M55,24.73H45.79a3.28,3.28,0,0,1-.83-.05,1.23,1.23,0,0,1,0-2.42,3.73,3.73,0,0,1,.82,0H64.14a3.82,3.82,0,0,1,.83,0,1.16,1.16,0,0,1,1,1.22,1.18,1.18,0,0,1-1,1.21,4.46,4.46,0,0,1-.82,0Z"/><path class="cls-1" d="M53.73,40.53c2.77,0,5.53,0,8.3,0A2.1,2.1,0,0,1,63.3,41a1.18,1.18,0,0,1-.55,2,3.55,3.55,0,0,1-1,.08H45.33A1.29,1.29,0,0,1,44,41.78a1.27,1.27,0,0,1,1.38-1.24c1.46,0,2.93,0,4.4,0Z"/><path class="cls-1" d="M73.35,24.73c-1.13,0-2.26,0-3.39,0a1.26,1.26,0,1,1,0-2.5h6.7c.89,0,1.45.52,1.44,1.26s-.56,1.23-1.45,1.24C75.56,24.74,74.45,24.73,73.35,24.73Z"/></svg>