<svg id="레이어_1" data-name="레이어 1" xmlns="http://www.w3.org/2000/svg" viewBox="0 0 85.04 58.9"><defs><style>.cls-1{fill:#fff;}</style></defs><title>대지 5 사본</title><path class="cls-1" d="M0,28.42a4.22,4.22,0,0,1,3.43-3.08,8.57,8.57,0,0,1,1.24-.05h66.8c-.34-.36-.53-.58-.74-.79L53.12,6.89a4,4,0,0,1,5.19-6c.25.21.48.45.72.69L83.39,26c2.2,2.2,2.2,4.34,0,6.54Q71.12,44.79,58.86,57.06a4,4,0,0,1-4.21,1.27A3.94,3.94,0,0,1,52.73,52c.21-.25.45-.48.69-.72L70.73,34c.21-.21.4-.43.73-.78H70.34q-32.67,0-65.34,0c-2.44,0-4.17-.78-5-3.16Z"/></svg>